<svg xmlns="http://www.w3.org/2000/svg"><symbol id="ao-play" viewBox="0 0 24 24" fill="none" stroke="currentColor" stroke-width="1.6" stroke-linecap="square"><path d="m8 5 11 7-11 7Z"/></symbol><symbol id="ao-pause" viewBox="0 0 24 24" fill="none" stroke="currentColor" stroke-width="1.6" stroke-linecap="square"><path d="M8 5v14M16 5v14"/></symbol><symbol id="ao-step" viewBox="0 0 24 24" fill="none" stroke="currentColor" stroke-width="1.6" stroke-linecap="square"><path d="m5 5 10 7-10 7ZM19 5v14"/></symbol><symbol id="ao-base" viewBox="0 0 24 24" fill="none" stroke="currentColor" stroke-width="1.6" stroke-linecap="square"><path d="M4 9V4h5m6 0h5v5m0 6v5h-5M9 20H4v-5"/><rect x="10" y="10" width="4" height="4"/></symbol><symbol id="ao-base-created" viewBox="0 0 24 24" fill="none" stroke="currentColor" stroke-width="1.6" stroke-linecap="square"><rect x="4" y="4" width="16" height="16"/><path d="M12 7v10M7 12h10"/></symbol><symbol id="ao-base-lost" viewBox="0 0 24 24" fill="none" stroke="currentColor" stroke-width="1.6" stroke-linecap="square"><path d="M4 9V4h5m6 0h5v5m0 6v5h-5M9 20H4v-5M8 8l8 8m0-8-8 8"/></symbol><symbol id="ao-leader" viewBox="0 0 24 24" fill="none" stroke="currentColor" stroke-width="1.6" stroke-linecap="square"><path d="m4 15 5-5 4 3 7-9m-6 0h6v6"/></symbol><symbol id="ao-halftime" viewBox="0 0 24 24" fill="none" stroke="currentColor" stroke-width="1.6" stroke-linecap="square"><path d="M5 4h14M5 20h14M7 4v4l5 4-5 4v4m10-16v4l-5 4 5 4v4"/></symbol><symbol id="ao-fulltime" viewBox="0 0 24 24" fill="none" stroke="currentColor" stroke-width="1.6" stroke-linecap="square"><path d="M6 22V3m0 1h13l-3 4 3 4H6"/></symbol><symbol id="ao-alert" viewBox="0 0 24 24" fill="none" stroke="currentColor" stroke-width="1.6" stroke-linecap="square"><path d="M12 3 2 21h20L12 3Zm0 6v5m0 3v1"/></symbol><symbol id="ao-focus" viewBox="0 0 24 24" fill="none" stroke="currentColor" stroke-width="1.6" stroke-linecap="square"><path d="M3 8V3h5m8 0h5v5m0 8v5h-5M8 21H3v-5"/><circle cx="12" cy="12" r="3"/></symbol><symbol id="ao-close" viewBox="0 0 24 24" fill="none" stroke="currentColor" stroke-width="1.6" stroke-linecap="square"><path d="m6 6 12 12M18 6 6 18"/></symbol><symbol id="ao-settings" viewBox="0 0 24 24" fill="none" stroke="currentColor" stroke-width="1.6" stroke-linecap="square"><path d="M4 6h16M4 12h16M4 18h16"/><path d="M8 3v6m8 0v6M10 15v6"/></symbol><symbol id="ao-history" viewBox="0 0 24 24" fill="none" stroke="currentColor" stroke-width="1.6" stroke-linecap="square"><path d="M4 7a9 9 0 1 1-1 9M4 3v5h5M12 7v5l4 2"/></symbol><symbol id="ao-motion" viewBox="0 0 24 24" fill="none" stroke="currentColor" stroke-width="1.6" stroke-linecap="square"><path d="M3 7h7M1 12h7M3 17h7"/><circle cx="16" cy="12" r="5"/></symbol><symbol id="ao-food" viewBox="0 0 24 24" fill="none" stroke="currentColor" stroke-width="1.6" stroke-linecap="square"><path d="m12 5 7 7-7 7-7-7Z"/></symbol><symbol id="ao-cells" viewBox="0 0 24 24" fill="none" stroke="currentColor" stroke-width="1.6" stroke-linecap="square"><path d="M3 3h7v7H3Zm11 0h7v7h-7ZM3 14h7v7H3Zm11 0h7v7h-7Z"/></symbol><symbol id="ao-chevron" viewBox="0 0 24 24" fill="none" stroke="currentColor" stroke-width="1.6" stroke-linecap="square"><path d="m9 5 7 7-7 7"/></symbol></svg>